<svg width="312" height="300" viewBox="0 0 312 300" fill="none" xmlns="http://www.w3.org/2000/svg">
<path d="M211.72 242.902C203.912 248.874 195.289 253.506 186.084 256.71L185.355 256.973C182.093 258.08 178.393 256.885 176.354 254.03L172.013 247.971C169.537 244.475 166.245 242.64 162.021 242.319C160.098 242.174 158.263 242.115 155.991 242.115C153.981 242.115 152.087 242.261 150.194 242.494C146.377 242.96 143.289 244.825 141.075 248.058L136.006 255.429C134.025 258.313 130.267 259.594 126.917 258.487C118.557 255.749 110.167 251.204 100.524 244.213C98.747 242.931 96.2416 243.164 94.9599 244.766C93.882 246.106 93.8529 248.029 94.8433 249.427C100.495 257.439 106.205 265.45 111.769 273.199L121.732 287.124C127.15 294.756 134.317 298.806 143.639 299.534C147.746 299.854 151.679 300 155.525 300C160.768 300 165.808 299.709 170.76 299.097C179.092 298.077 185.792 293.999 190.687 286.949C194.182 281.909 197.707 276.753 201.116 271.771L202.689 269.499C206.505 263.964 210.38 258.283 214.254 252.719C215.332 251.175 216.381 249.631 217.459 248.117C217.954 247.417 218.187 246.602 218.187 245.786C218.187 244.621 217.604 243.543 216.672 242.815C215.303 241.737 213.234 241.795 211.749 242.931L211.72 242.902Z" fill="#94F85F"/>
<path d="M75.8273 225.245C67.7578 219.68 60.6788 212.893 54.7942 205.144L54.3281 204.503C52.2597 201.735 52.2597 197.832 54.3281 195.035L53.2211 194.219L54.5903 194.656L58.7561 189.034C61.2906 185.596 62.048 181.897 61.0575 177.76C60.6205 175.895 60.0962 174.118 59.3679 171.963C58.727 170.098 57.9987 168.292 57.2121 166.573C55.5807 163.078 52.8715 160.747 49.0844 159.611L40.4905 157.076C37.1113 156.086 34.7516 152.911 34.7807 149.357C34.7807 140.588 36.5286 131.207 40.2284 119.846C40.8984 117.749 39.9079 115.447 37.9852 114.748C36.383 114.136 34.5477 114.69 33.5281 116.059C27.5561 124.041 21.6132 132.111 15.8743 139.889L15.6412 140.18C12.4367 144.55 9.20312 148.92 5.9695 153.26C0.405353 160.776 -1.25515 168.846 0.929723 177.906C3.23113 187.373 6.08603 195.763 9.69836 203.571C13.2233 211.203 19.1953 216.301 27.4104 218.777C33.295 220.525 39.267 222.302 45.0642 224.021L47.1908 224.662C53.8037 226.614 60.5914 228.624 67.2334 230.634L67.6413 229.323L67.5539 230.721C69.2435 231.246 70.9623 231.741 72.6228 232.265C73.0015 232.382 73.4093 232.44 73.8172 232.44C74.2542 232.44 74.662 232.382 75.0698 232.236C76.1768 231.857 77.0217 230.983 77.4586 229.876C78.0413 228.245 77.3712 226.293 75.8273 225.245Z" fill="#94F85F"/>
<path d="M100.65 54.7528C103.476 52.131 104.845 48.81 104.758 44.8772L104.525 35.9338C104.437 32.4089 106.71 29.2044 110.089 28.0974C118.42 25.4172 127.83 24.1646 139.687 24.1646H139.832C142.046 24.1646 143.911 22.5041 143.998 20.4357C144.085 18.717 142.978 17.1439 141.347 16.5904C132.433 13.5607 123.46 10.5601 114.721 7.64693L112.856 7.03516C107.7 5.31639 102.573 3.59762 97.4165 1.87886C88.5314 -1.09257 80.3454 -0.160361 72.4216 4.70463C64.119 9.80267 57.04 15.1338 50.7476 20.9892C44.6008 26.699 41.5711 33.9528 41.775 42.5467C41.9207 48.6935 42.0955 54.9276 42.2411 60.9579L42.2994 63.3467C42.4742 70.1926 42.6781 77.1842 42.8238 84.1176C42.8529 86.0111 42.9112 87.8756 42.9112 89.74C42.9112 90.5848 43.2025 91.4005 43.6977 92.0705C44.3969 93.0027 45.5039 93.5562 46.6692 93.5854H46.7857C48.4753 93.5854 50.0484 92.3327 50.5728 90.5848C53.3986 81.1753 57.6227 72.3484 63.3616 64.1041L63.6238 63.7254C65.6339 60.8996 69.3336 59.7052 72.6255 60.8122L73.0625 59.5304V60.9579L79.7045 63.1719C83.7538 64.5411 87.4826 64.1041 91.1241 61.861C92.7555 60.8705 94.3577 59.7926 96.1056 58.4817C97.737 57.2582 99.1936 56.0638 100.563 54.7528H100.65Z" fill="#94F85F"/>
<path d="M248.72 62.2387C253.877 69.3468 257.984 77.9406 261.655 89.302C262.237 91.079 263.84 92.2443 265.529 92.2443C265.85 92.2443 266.17 92.2151 266.491 92.1278C268.151 91.6617 269.316 90.1468 269.316 88.428C269.462 78.8437 269.52 69.2011 269.608 59.8499L269.753 42.1087C269.841 32.7574 266.432 25.2414 259.324 19.2112C251.925 12.8896 244.671 7.79155 237.155 3.62572C229.814 -0.481844 221.977 -1.09361 213.879 1.76129C208.082 3.80051 202.197 5.86886 196.516 7.90808L194.39 8.6655C187.893 10.9669 181.251 13.3266 174.668 15.628C172.891 16.2397 171.114 16.8515 169.366 17.4633C168.55 17.7255 167.88 18.2498 167.385 18.9199C166.715 19.8812 166.54 21.0756 166.86 22.2409C167.356 23.9014 168.958 25.0375 170.822 25.0375H170.939C180.785 24.8045 190.457 26.1154 199.983 28.9994L200.537 29.1742C203.828 30.1938 206.101 33.3692 206.072 36.8358L206.013 44.2935C205.984 48.5759 207.528 51.9843 210.791 54.7518C212.248 56.0045 213.733 57.1406 215.539 58.4515C217.171 59.5877 218.802 60.6364 220.463 61.5395C223.842 63.4039 227.425 63.6952 231.125 62.4134L239.573 59.4129C242.865 58.2476 246.652 59.4129 248.72 62.2969V62.2387Z" fill="#94F85F"/>
<path d="M305.847 152.786C302.118 147.921 298.331 142.968 294.631 138.161L291.602 134.229C287.931 129.451 284.202 124.586 280.561 119.779L280.269 119.401C279.221 118.031 278.201 116.662 277.181 115.293C276.686 114.594 275.987 114.128 275.171 113.895C274.064 113.545 272.87 113.749 271.85 114.419C270.423 115.38 269.84 117.361 270.452 119.138C273.715 128.402 275.463 138.016 275.667 147.775V148.561C275.725 151.999 273.423 155.145 270.102 156.223L262.994 158.466C258.916 159.748 256.148 162.282 254.517 166.215C253.789 167.963 253.148 169.711 252.449 171.896C251.866 173.819 251.4 175.683 251.021 177.518C250.293 181.305 251.109 184.801 253.497 187.918L258.945 195.026C261.101 197.823 261.13 201.756 259.032 204.611C253.876 211.719 246.972 218.274 237.3 225.294C235.523 226.605 234.999 229.052 236.135 230.742C236.863 231.849 238.087 232.461 239.369 232.461C239.747 232.461 240.126 232.402 240.505 232.286C250.031 229.344 259.586 226.314 268.821 223.401L269.17 223.284C274.327 221.653 279.512 220.021 284.697 218.39C293.612 215.593 299.7 210.029 303.254 201.406C306.954 192.405 309.576 183.956 311.236 175.508C312.839 167.264 311.032 159.632 305.818 152.815L305.847 152.786Z" fill="#94F85F"/>
</svg>
