<svg xmlns="http://www.w3.org/2000/svg" viewBox="0 0 32 32">
  <defs>
    <linearGradient id="bg" x1="0%" y1="0%" x2="100%" y2="100%">
      <stop offset="0%" style="stop-color:#475569"/>
      <stop offset="100%" style="stop-color:#1e293b"/>
    </linearGradient>
  </defs>
  <rect width="32" height="32" rx="6" fill="url(#bg)"/>
  <path d="M16 6c-1.5 0-3 0.8-4 2.5-1.5 2.5-2 6-2 8.5 0 1 0.2 2 0.5 3l-2 2.5c-0.3 0.4-0.1 0.9 0.3 1.1l2.2 0.9c0.5 1 1.2 1.8 2 2.5v1c0 0.5 0.4 1 1 1h4c0.5 0 1-0.5 1-1v-1c0.8-0.7 1.5-1.5 2-2.5l2.2-0.9c0.4-0.2 0.6-0.7 0.3-1.1l-2-2.5c0.3-1 0.5-2 0.5-3 0-2.5-0.5-6-2-8.5-1-1.7-2.5-2.5-4-2.5zm0 3c0.5 0 1 0.3 1.5 1 0.8 1.3 1.5 3.5 1.5 6 0 0.5 0 1-0.1 1.5h-5.8c-0.1-0.5-0.1-1-0.1-1.5 0-2.5 0.7-4.7 1.5-6 0.5-0.7 1-1 1.5-1zm-1 10h2v2h-2v-2z" fill="white"/>
</svg>
